  0
SECTION
  2
HEADER
  9
$ACADVER
  1
AC1009
  9
$FILLMODE
 70
0
  9
$EXTMIN
 10
-3.2177
 20
-33.0991
 30
0.0000
  9
$EXTMAX
 10
111.2863
 20
95.8307
 30
0.0000
  0
ENDSEC
  0
SECTION
  2
TABLES
  0
TABLE
  2
LTYPE
 70
1
  0
LTYPE
  2
CONTINUOUS
 70
64
  3
Solid line
 72
65
 73
0
 40
0
  0
ENDTAB
  0
TABLE
  2
LAYER
 70
255
  0
LAYER
  2
18
 70
64
 62
110
  6
CONTINUOUS
  0
LAYER
  2
20
 70
64
 62
31
  6
CONTINUOUS
  0
ENDTAB
  0
ENDSEC
  0
SECTION
  2
BLOCKS
  0
BLOCK
  8
0
  2
RECT
 70
64
 10
0.0000
 20
0.0000
 30
0.0000
  3
RECT
  0
SOLID
  8
0
 10
-0.5000
 20
-0.5000
 30
0.0000
 11
0.5000
 21
-0.5000
 31
0.0000
 12
-0.5000
 22
0.5000
 32
0.0000
 13
0.5000
 23
0.5000
 33
0.0000
  0
ENDBLK
  8
0
  0
BLOCK
  8
0
  2
PIE
 70
64
 10
0.0000
 20
0.0000
 30
0.0000
  3
PIE
  0
CIRCLE
  8
0
 10
0.0000
 20
0.0000
 30
0.0000
 40
0.5000
  0
ENDBLK
  8
0
  0
BLOCK
  8
0
  2
OCTAGONP
 70
64
 10
0.0000
 20
0.0000
 30
0.0000
  3
OCTAGONP
  0
POLYLINE
  8
0
 66
1
 10
0.0000
 20
0.0000
 30
0.0000
 40
0.0000
 41
0.0000
 70
1
  0
VERTEX
  8
0
 10
-0.5000
 20
-0.2071
 30
0.0000
  0
VERTEX
  8
0
 10
-0.5000
 20
0.2071
 30
0.0000
  0
VERTEX
  8
0
 10
-0.2071
 20
0.5000
 30
0.0000
  0
VERTEX
  8
0
 10
0.2071
 20
0.5000
 30
0.0000
  0
VERTEX
  8
0
 10
0.5000
 20
0.2071
 30
0.0000
  0
VERTEX
  8
0
 10
0.5000
 20
-0.2071
 30
0.0000
  0
VERTEX
  8
0
 10
0.2071
 20
-0.5000
 30
0.0000
  0
VERTEX
  8
0
 10
-0.2071
 20
-0.5000
 30
0.0000
  0
SEQEND
  8
0
  0
ENDBLK
  8
0
  0
BLOCK
  8
0
  2
SQUAREP
 70
64
 10
0.0000
 20
0.0000
 30
0.0000
  3
SQUAREP
  0
SOLID
  8
0
 10
-0.5000
 20
-0.5000
 30
0.0000
 11
0.5000
 21
-0.5000
 31
0.0000
 12
-0.5000
 22
0.5000
 32
0.0000
 13
0.5000
 23
0.5000
 33
0.0000
  0
ENDBLK
  8
0
  0
BLOCK
  8
0
  2
ROUNDP
 70
64
 10
0.0000
 20
0.0000
 30
0.0000
  3
ROUNDP
  0
CIRCLE
  8
0
 10
0.0000
 20
0.0000
 30
0.0000
 40
0.5000
  0
ENDBLK
  8
0
  0
BLOCK
  8
0
  2
ANNULUSP
 70
64
 10
0.0000
 20
0.0000
 30
0.0000
  3
ANNULUSP
  0
CIRCLE
  8
0
 10
0.0000
 20
0.0000
 30
0.0000
 40
0.5000
  0
ENDBLK
  8
0
  0
BLOCK
  8
0
  2
THERMALP
 70
64
 10
0.0000
 20
0.0000
 30
0.0000
  3
THERMALP
  0
LINE
  8
0
 10
-0.2379
 20
0.4500
 30
0.0000
 11
0.2379
 21
0.4500
 31
0.0000
  0
LINE
  8
0
 10
0.4500
 20
0.2379
 30
0.0000
 11
0.4500
 21
-0.2379
 31
0.0000
  0
LINE
  8
0
 10
0.2379
 20
-0.4500
 30
0.0000
 11
-0.2379
 21
-0.4500
 31
0.0000
  0
LINE
  8
0
 10
-0.4500
 20
-0.2379
 30
0.0000
 11
-0.4500
 21
0.2379
 31
0.0000
  0
ENDBLK
  8
0
  0
BLOCK
  8
0
  2
OCTAGONV
 70
64
 10
0.0000
 20
0.0000
 30
0.0000
  3
OCTAGONV
  0
POLYLINE
  8
0
 66
1
 10
0.0000
 20
0.0000
 30
0.0000
 40
0.0000
 41
0.0000
 70
1
  0
VERTEX
  8
0
 10
-0.5000
 20
-0.2071
 30
0.0000
  0
VERTEX
  8
0
 10
-0.5000
 20
0.2071
 30
0.0000
  0
VERTEX
  8
0
 10
-0.2071
 20
0.5000
 30
0.0000
  0
VERTEX
  8
0
 10
0.2071
 20
0.5000
 30
0.0000
  0
VERTEX
  8
0
 10
0.5000
 20
0.2071
 30
0.0000
  0
VERTEX
  8
0
 10
0.5000
 20
-0.2071
 30
0.0000
  0
VERTEX
  8
0
 10
0.2071
 20
-0.5000
 30
0.0000
  0
VERTEX
  8
0
 10
-0.2071
 20
-0.5000
 30
0.0000
  0
SEQEND
  8
0
  0
ENDBLK
  8
0
  0
BLOCK
  8
0
  2
SQUAREV
 70
64
 10
0.0000
 20
0.0000
 30
0.0000
  3
SQUAREV
  0
SOLID
  8
0
 10
-0.5000
 20
-0.5000
 30
0.0000
 11
0.5000
 21
-0.5000
 31
0.0000
 12
-0.5000
 22
0.5000
 32
0.0000
 13
0.5000
 23
0.5000
 33
0.0000
  0
ENDBLK
  8
0
  0
BLOCK
  8
0
  2
ROUNDV
 70
64
 10
0.0000
 20
0.0000
 30
0.0000
  3
ROUNDV
  0
CIRCLE
  8
0
 10
0.0000
 20
0.0000
 30
0.0000
 40
0.5000
  0
ENDBLK
  8
0
  0
BLOCK
  8
0
  2
ANNULUSV
 70
64
 10
0.0000
 20
0.0000
 30
0.0000
  3
ANNULUSV
  0
CIRCLE
  8
0
 10
0.0000
 20
0.0000
 30
0.0000
 40
0.5000
  0
ENDBLK
  8
0
  0
BLOCK
  8
0
  2
THERMALV
 70
64
 10
0.0000
 20
0.0000
 30
0.0000
  3
THERMALV
  0
LINE
  8
0
 10
-0.2379
 20
0.4500
 30
0.0000
 11
0.2379
 21
0.4500
 31
0.0000
  0
LINE
  8
0
 10
0.4500
 20
0.2379
 30
0.0000
 11
0.4500
 21
-0.2379
 31
0.0000
  0
LINE
  8
0
 10
0.2379
 20
-0.4500
 30
0.0000
 11
-0.2379
 21
-0.4500
 31
0.0000
  0
LINE
  8
0
 10
-0.4500
 20
-0.2379
 30
0.0000
 11
-0.4500
 21
0.2379
 31
0.0000
  0
ENDBLK
  8
0
  0
BLOCK
  8
0
  2
LONGP100
 70
64
 10
0.0000
 20
0.0000
 30
0.0000
  3
LONGP100
  0
POLYLINE
  8
0
 66
1
 10
0.0000
 20
0.0000
 30
0.0000
 40
0.0000
 41
0.0000
 70
1
  0
VERTEX
  8
0
 10
-0.5000
 20
-0.5000
 30
0.0000
  0
VERTEX
  8
0
 10
0.5000
 20
-0.5000
 30
0.0000
 42
1.0000
  0
VERTEX
  8
0
 10
0.5000
 20
0.5000
 30
0.0000
  0
VERTEX
  8
0
 10
-0.5000
 20
0.5000
 30
0.0000
 42
1.0000
  0
SEQEND
  8
0
  0
ENDBLK
  8
0
  0
ENDSEC
  0
SECTION
  2
ENTITIES
  0
ARC
  8
20
 10
1.0000
 20
-29.0000
 30
0.0000
 40
4.0000
 50
180.0000
 51
270.0000
  0
LINE
  8
20
 10
-3.0000
 20
-29.0000
 30
0.0000
 11
-3.0000
 21
85.0000
 31
0.0000
  0
ARC
  8
20
 10
1.0000
 20
85.0000
 30
0.0000
 40
4.0000
 50
90.0000
 51
180.0000
  0
LINE
  8
20
 10
1.0000
 20
89.0000
 30
0.0000
 11
107.0000
 21
89.0000
 31
0.0000
  0
ARC
  8
20
 10
107.0000
 20
85.0000
 30
0.0000
 40
4.0000
 50
0.0000
 51
90.0000
  0
LINE
  8
20
 10
111.0000
 20
85.0000
 30
0.0000
 11
111.0000
 21
-29.0000
 31
0.0000
  0
ARC
  8
20
 10
107.0000
 20
-29.0000
 30
0.0000
 40
4.0000
 50
270.0000
 51
0.0000
  0
LINE
  8
20
 10
107.0000
 20
-33.0000
 30
0.0000
 11
1.0000
 21
-33.0000
 31
0.0000
  0
INSERT
  8
18
  2
ROUNDV
 10
27.2796
 20
63.2460
 30
0.0000
 41
0.7564
 42
0.7564
 43
1.0000
 50
0.0000
  0
INSERT
  8
18
  2
ROUNDV
 10
27.2796
 20
63.2460
 30
0.0000
 41
0.7564
 42
0.7564
 43
1.0000
 50
0.0000
  0
INSERT
  8
18
  2
ROUNDV
 10
28.8036
 20
55.6260
 30
0.0000
 41
0.7564
 42
0.7564
 43
1.0000
 50
0.0000
  0
INSERT
  8
18
  2
ROUNDV
 10
28.8036
 20
55.6260
 30
0.0000
 41
0.7564
 42
0.7564
 43
1.0000
 50
0.0000
  0
INSERT
  8
18
  2
ROUNDV
 10
64.3128
 20
67.3608
 30
0.0000
 41
0.7564
 42
0.7564
 43
1.0000
 50
0.0000
  0
INSERT
  8
18
  2
ROUNDV
 10
64.3128
 20
67.3608
 30
0.0000
 41
0.7564
 42
0.7564
 43
1.0000
 50
0.0000
  0
INSERT
  8
18
  2
ROUNDV
 10
62.6364
 20
75.1332
 30
0.0000
 41
0.7564
 42
0.7564
 43
1.0000
 50
0.0000
  0
INSERT
  8
18
  2
ROUNDV
 10
62.6364
 20
75.1332
 30
0.0000
 41
0.7564
 42
0.7564
 43
1.0000
 50
0.0000
  0
INSERT
  8
18
  2
ROUNDV
 10
97.8408
 20
65.8368
 30
0.0000
 41
0.7564
 42
0.7564
 43
1.0000
 50
0.0000
  0
INSERT
  8
18
  2
ROUNDV
 10
97.8408
 20
65.8368
 30
0.0000
 41
0.7564
 42
0.7564
 43
1.0000
 50
0.0000
  0
INSERT
  8
18
  2
ROUNDV
 10
105.0036
 20
65.3796
 30
0.0000
 41
0.7564
 42
0.7564
 43
1.0000
 50
0.0000
  0
INSERT
  8
18
  2
ROUNDV
 10
105.0036
 20
65.3796
 30
0.0000
 41
0.7564
 42
0.7564
 43
1.0000
 50
0.0000
  0
INSERT
  8
18
  2
ROUNDV
 10
91.2876
 20
62.0268
 30
0.0000
 41
0.7564
 42
0.7564
 43
1.0000
 50
0.0000
  0
INSERT
  8
18
  2
ROUNDV
 10
91.2876
 20
62.0268
 30
0.0000
 41
0.7564
 42
0.7564
 43
1.0000
 50
0.0000
  0
INSERT
  8
18
  2
ROUNDV
 10
80.6196
 20
31.0896
 30
0.0000
 41
0.7564
 42
0.7564
 43
1.0000
 50
0.0000
  0
INSERT
  8
18
  2
ROUNDV
 10
80.6196
 20
31.0896
 30
0.0000
 41
0.7564
 42
0.7564
 43
1.0000
 50
0.0000
  0
INSERT
  8
18
  2
ROUNDV
 10
83.5152
 20
51.0540
 30
0.0000
 41
0.7564
 42
0.7564
 43
1.0000
 50
0.0000
  0
INSERT
  8
18
  2
ROUNDV
 10
83.5152
 20
51.0540
 30
0.0000
 41
0.7564
 42
0.7564
 43
1.0000
 50
0.0000
  0
INSERT
  8
18
  2
ROUNDV
 10
86.8680
 20
28.4988
 30
0.0000
 41
0.7564
 42
0.7564
 43
1.0000
 50
0.0000
  0
INSERT
  8
18
  2
ROUNDV
 10
86.8680
 20
28.4988
 30
0.0000
 41
0.7564
 42
0.7564
 43
1.0000
 50
0.0000
  0
INSERT
  8
18
  2
ROUNDV
 10
86.2584
 20
19.2024
 30
0.0000
 41
0.7564
 42
0.7564
 43
1.0000
 50
0.0000
  0
INSERT
  8
18
  2
ROUNDV
 10
86.2584
 20
19.2024
 30
0.0000
 41
0.7564
 42
0.7564
 43
1.0000
 50
0.0000
  0
INSERT
  8
18
  2
ROUNDV
 10
102.4128
 20
4.1148
 30
0.0000
 41
0.7564
 42
0.7564
 43
1.0000
 50
0.0000
  0
INSERT
  8
18
  2
ROUNDV
 10
102.4128
 20
4.1148
 30
0.0000
 41
0.7564
 42
0.7564
 43
1.0000
 50
0.0000
  0
INSERT
  8
18
  2
ROUNDV
 10
45.5676
 20
28.3464
 30
0.0000
 41
0.7564
 42
0.7564
 43
1.0000
 50
0.0000
  0
INSERT
  8
18
  2
ROUNDV
 10
45.5676
 20
28.3464
 30
0.0000
 41
0.7564
 42
0.7564
 43
1.0000
 50
0.0000
  0
INSERT
  8
18
  2
ROUNDV
 10
43.1292
 20
34.2900
 30
0.0000
 41
0.7564
 42
0.7564
 43
1.0000
 50
0.0000
  0
INSERT
  8
18
  2
ROUNDV
 10
43.1292
 20
34.2900
 30
0.0000
 41
0.7564
 42
0.7564
 43
1.0000
 50
0.0000
  0
INSERT
  8
18
  2
ROUNDV
 10
43.7388
 20
21.7932
 30
0.0000
 41
0.7564
 42
0.7564
 43
1.0000
 50
0.0000
  0
INSERT
  8
18
  2
ROUNDV
 10
43.7388
 20
21.7932
 30
0.0000
 41
0.7564
 42
0.7564
 43
1.0000
 50
0.0000
  0
INSERT
  8
18
  2
ROUNDV
 10
45.8724
 20
21.1836
 30
0.0000
 41
0.7564
 42
0.7564
 43
1.0000
 50
0.0000
  0
INSERT
  8
18
  2
ROUNDV
 10
45.8724
 20
21.1836
 30
0.0000
 41
0.7564
 42
0.7564
 43
1.0000
 50
0.0000
  0
INSERT
  8
18
  2
ROUNDV
 10
47.2440
 20
20.7264
 30
0.0000
 41
0.7564
 42
0.7564
 43
1.0000
 50
0.0000
  0
INSERT
  8
18
  2
ROUNDV
 10
47.2440
 20
20.7264
 30
0.0000
 41
0.7564
 42
0.7564
 43
1.0000
 50
0.0000
  0
INSERT
  8
18
  2
ROUNDV
 10
48.9204
 20
26.8224
 30
0.0000
 41
0.7564
 42
0.7564
 43
1.0000
 50
0.0000
  0
INSERT
  8
18
  2
ROUNDV
 10
48.9204
 20
26.8224
 30
0.0000
 41
0.7564
 42
0.7564
 43
1.0000
 50
0.0000
  0
INSERT
  8
18
  2
ROUNDV
 10
80.6196
 20
32.9184
 30
0.0000
 41
0.7564
 42
0.7564
 43
1.0000
 50
0.0000
  0
INSERT
  8
18
  2
ROUNDV
 10
80.6196
 20
32.9184
 30
0.0000
 41
0.7564
 42
0.7564
 43
1.0000
 50
0.0000
  0
INSERT
  8
18
  2
ROUNDV
 10
32.4000
 20
84.6000
 30
0.0000
 41
0.7564
 42
0.7564
 43
1.0000
 50
0.0000
  0
INSERT
  8
18
  2
ROUNDV
 10
32.4000
 20
84.6000
 30
0.0000
 41
0.7564
 42
0.7564
 43
1.0000
 50
0.0000
  0
INSERT
  8
18
  2
ROUNDV
 10
73.5000
 20
-17.1000
 30
0.0000
 41
1.0064
 42
1.0064
 43
1.0000
 50
0.0000
  0
INSERT
  8
18
  2
ROUNDV
 10
73.5000
 20
-17.1000
 30
0.0000
 41
1.0064
 42
1.0064
 43
1.0000
 50
0.0000
  0
INSERT
  8
18
  2
ROUNDV
 10
40.3860
 20
24.8412
 30
0.0000
 41
0.7564
 42
0.7564
 43
1.0000
 50
0.0000
  0
INSERT
  8
18
  2
ROUNDV
 10
40.3860
 20
24.8412
 30
0.0000
 41
0.7564
 42
0.7564
 43
1.0000
 50
0.0000
  0
INSERT
  8
18
  2
ROUNDV
 10
37.9476
 20
51.5112
 30
0.0000
 41
0.7564
 42
0.7564
 43
1.0000
 50
0.0000
  0
INSERT
  8
18
  2
ROUNDV
 10
37.9476
 20
51.5112
 30
0.0000
 41
0.7564
 42
0.7564
 43
1.0000
 50
0.0000
  0
INSERT
  8
18
  2
ROUNDV
 10
47.3964
 20
26.9748
 30
0.0000
 41
0.7564
 42
0.7564
 43
1.0000
 50
0.0000
  0
INSERT
  8
18
  2
ROUNDV
 10
47.3964
 20
26.9748
 30
0.0000
 41
0.7564
 42
0.7564
 43
1.0000
 50
0.0000
  0
INSERT
  8
18
  2
ROUNDV
 10
33.3756
 20
62.7888
 30
0.0000
 41
0.7564
 42
0.7564
 43
1.0000
 50
0.0000
  0
INSERT
  8
18
  2
ROUNDV
 10
33.3756
 20
62.7888
 30
0.0000
 41
0.7564
 42
0.7564
 43
1.0000
 50
0.0000
  0
INSERT
  8
18
  2
ROUNDV
 10
33.6804
 20
60.3504
 30
0.0000
 41
0.7564
 42
0.7564
 43
1.0000
 50
0.0000
  0
INSERT
  8
18
  2
ROUNDV
 10
33.6804
 20
60.3504
 30
0.0000
 41
0.7564
 42
0.7564
 43
1.0000
 50
0.0000
  0
INSERT
  8
18
  2
ROUNDV
 10
22.8600
 20
51.6636
 30
0.0000
 41
0.7564
 42
0.7564
 43
1.0000
 50
0.0000
  0
INSERT
  8
18
  2
ROUNDV
 10
22.8600
 20
51.6636
 30
0.0000
 41
0.7564
 42
0.7564
 43
1.0000
 50
0.0000
  0
INSERT
  8
18
  2
ROUNDV
 10
25.1460
 20
59.7408
 30
0.0000
 41
0.7564
 42
0.7564
 43
1.0000
 50
0.0000
  0
INSERT
  8
18
  2
ROUNDV
 10
25.1460
 20
59.7408
 30
0.0000
 41
0.7564
 42
0.7564
 43
1.0000
 50
0.0000
  0
INSERT
  8
18
  2
ROUNDV
 10
69.9944
 20
73.6092
 30
0.0000
 41
0.7564
 42
0.7564
 43
1.0000
 50
0.0000
  0
INSERT
  8
18
  2
ROUNDV
 10
69.9944
 20
73.6092
 30
0.0000
 41
0.7564
 42
0.7564
 43
1.0000
 50
0.0000
  0
INSERT
  8
18
  2
ROUNDV
 10
60.5028
 20
65.5320
 30
0.0000
 41
0.7564
 42
0.7564
 43
1.0000
 50
0.0000
  0
INSERT
  8
18
  2
ROUNDV
 10
60.5028
 20
65.5320
 30
0.0000
 41
0.7564
 42
0.7564
 43
1.0000
 50
0.0000
  0
INSERT
  8
18
  2
ROUNDV
 10
58.5216
 20
63.0936
 30
0.0000
 41
0.7564
 42
0.7564
 43
1.0000
 50
0.0000
  0
INSERT
  8
18
  2
ROUNDV
 10
58.5216
 20
63.0936
 30
0.0000
 41
0.7564
 42
0.7564
 43
1.0000
 50
0.0000
  0
INSERT
  8
18
  2
ROUNDV
 10
72.2376
 20
63.7032
 30
0.0000
 41
0.7564
 42
0.7564
 43
1.0000
 50
0.0000
  0
INSERT
  8
18
  2
ROUNDV
 10
72.2376
 20
63.7032
 30
0.0000
 41
0.7564
 42
0.7564
 43
1.0000
 50
0.0000
  0
INSERT
  8
18
  2
ROUNDV
 10
84.1248
 20
24.2316
 30
0.0000
 41
0.7564
 42
0.7564
 43
1.0000
 50
0.0000
  0
INSERT
  8
18
  2
ROUNDV
 10
84.1248
 20
24.2316
 30
0.0000
 41
0.7564
 42
0.7564
 43
1.0000
 50
0.0000
  0
INSERT
  8
18
  2
ROUNDV
 10
85.8012
 20
24.5364
 30
0.0000
 41
0.7564
 42
0.7564
 43
1.0000
 50
0.0000
  0
INSERT
  8
18
  2
ROUNDV
 10
85.8012
 20
24.5364
 30
0.0000
 41
0.7564
 42
0.7564
 43
1.0000
 50
0.0000
  0
INSERT
  8
18
  2
ROUNDV
 10
100.5840
 20
59.5884
 30
0.0000
 41
0.7564
 42
0.7564
 43
1.0000
 50
0.0000
  0
INSERT
  8
18
  2
ROUNDV
 10
100.5840
 20
59.5884
 30
0.0000
 41
0.7564
 42
0.7564
 43
1.0000
 50
0.0000
  0
INSERT
  8
18
  2
ROUNDV
 10
95.2500
 20
69.3896
 30
0.0000
 41
0.7564
 42
0.7564
 43
1.0000
 50
0.0000
  0
INSERT
  8
18
  2
ROUNDV
 10
95.2500
 20
69.3896
 30
0.0000
 41
0.7564
 42
0.7564
 43
1.0000
 50
0.0000
  0
INSERT
  8
18
  2
ROUNDV
 10
98.4504
 20
66.5988
 30
0.0000
 41
0.7564
 42
0.7564
 43
1.0000
 50
0.0000
  0
INSERT
  8
18
  2
ROUNDV
 10
98.4504
 20
66.5988
 30
0.0000
 41
0.7564
 42
0.7564
 43
1.0000
 50
0.0000
  0
INSERT
  8
18
  2
ROUNDV
 10
91.4400
 20
39.0144
 30
0.0000
 41
0.7564
 42
0.7564
 43
1.0000
 50
0.0000
  0
INSERT
  8
18
  2
ROUNDV
 10
91.4400
 20
39.0144
 30
0.0000
 41
0.7564
 42
0.7564
 43
1.0000
 50
0.0000
  0
INSERT
  8
18
  2
ROUNDV
 10
87.4776
 20
27.5368
 30
0.0000
 41
0.7564
 42
0.7564
 43
1.0000
 50
0.0000
  0
INSERT
  8
18
  2
ROUNDV
 10
87.4776
 20
27.5368
 30
0.0000
 41
0.7564
 42
0.7564
 43
1.0000
 50
0.0000
  0
INSERT
  8
18
  2
ROUNDV
 10
2.4384
 20
39.3192
 30
0.0000
 41
0.7564
 42
0.7564
 43
1.0000
 50
0.0000
  0
INSERT
  8
18
  2
ROUNDV
 10
2.4384
 20
39.3192
 30
0.0000
 41
0.7564
 42
0.7564
 43
1.0000
 50
0.0000
  0
INSERT
  8
18
  2
ROUNDV
 10
2.4384
 20
38.1000
 30
0.0000
 41
0.7564
 42
0.7564
 43
1.0000
 50
0.0000
  0
INSERT
  8
18
  2
ROUNDV
 10
2.4384
 20
38.1000
 30
0.0000
 41
0.7564
 42
0.7564
 43
1.0000
 50
0.0000
  0
INSERT
  8
18
  2
ROUNDV
 10
2.4384
 20
55.8000
 30
0.0000
 41
0.7564
 42
0.7564
 43
1.0000
 50
0.0000
  0
INSERT
  8
18
  2
ROUNDV
 10
2.4384
 20
55.8000
 30
0.0000
 41
0.7564
 42
0.7564
 43
1.0000
 50
0.0000
  0
INSERT
  8
18
  2
ROUNDV
 10
4.2672
 20
42.6720
 30
0.0000
 41
0.7564
 42
0.7564
 43
1.0000
 50
0.0000
  0
INSERT
  8
18
  2
ROUNDV
 10
4.2672
 20
42.6720
 30
0.0000
 41
0.7564
 42
0.7564
 43
1.0000
 50
0.0000
  0
INSERT
  8
18
  2
ROUNDV
 10
4.2672
 20
53.1000
 30
0.0000
 41
0.7564
 42
0.7564
 43
1.0000
 50
0.0000
  0
INSERT
  8
18
  2
ROUNDV
 10
4.2672
 20
53.1000
 30
0.0000
 41
0.7564
 42
0.7564
 43
1.0000
 50
0.0000
  0
INSERT
  8
18
  2
ROUNDV
 10
34.4424
 20
40.2336
 30
0.0000
 41
0.7564
 42
0.7564
 43
1.0000
 50
0.0000
  0
INSERT
  8
18
  2
ROUNDV
 10
34.4424
 20
40.2336
 30
0.0000
 41
0.7564
 42
0.7564
 43
1.0000
 50
0.0000
  0
INSERT
  8
18
  2
ROUNDV
 10
36.0380
 20
40.2336
 30
0.0000
 41
0.7564
 42
0.7564
 43
1.0000
 50
0.0000
  0
INSERT
  8
18
  2
ROUNDV
 10
36.0380
 20
40.2336
 30
0.0000
 41
0.7564
 42
0.7564
 43
1.0000
 50
0.0000
  0
INSERT
  8
18
  2
ROUNDV
 10
8.5344
 20
28.4988
 30
0.0000
 41
0.7564
 42
0.7564
 43
1.0000
 50
0.0000
  0
INSERT
  8
18
  2
ROUNDV
 10
8.5344
 20
28.4988
 30
0.0000
 41
0.7564
 42
0.7564
 43
1.0000
 50
0.0000
  0
INSERT
  8
18
  2
ROUNDV
 10
20.2692
 20
40.2336
 30
0.0000
 41
0.7564
 42
0.7564
 43
1.0000
 50
0.0000
  0
INSERT
  8
18
  2
ROUNDV
 10
20.2692
 20
40.2336
 30
0.0000
 41
0.7564
 42
0.7564
 43
1.0000
 50
0.0000
  0
INSERT
  8
18
  2
ROUNDV
 10
59.1312
 20
43.8912
 30
0.0000
 41
0.7564
 42
0.7564
 43
1.0000
 50
0.0000
  0
INSERT
  8
18
  2
ROUNDV
 10
59.1312
 20
43.8912
 30
0.0000
 41
0.7564
 42
0.7564
 43
1.0000
 50
0.0000
  0
INSERT
  8
18
  2
ROUNDV
 10
65.4176
 20
47.3776
 30
0.0000
 41
0.7564
 42
0.7564
 43
1.0000
 50
0.0000
  0
INSERT
  8
18
  2
ROUNDV
 10
65.4176
 20
47.3776
 30
0.0000
 41
0.7564
 42
0.7564
 43
1.0000
 50
0.0000
  0
INSERT
  8
18
  2
ROUNDV
 10
91.2876
 20
59.4360
 30
0.0000
 41
0.7564
 42
0.7564
 43
1.0000
 50
0.0000
  0
INSERT
  8
18
  2
ROUNDV
 10
91.2876
 20
59.4360
 30
0.0000
 41
0.7564
 42
0.7564
 43
1.0000
 50
0.0000
  0
INSERT
  8
18
  2
ROUNDV
 10
98.1456
 20
61.7220
 30
0.0000
 41
0.7564
 42
0.7564
 43
1.0000
 50
0.0000
  0
INSERT
  8
18
  2
ROUNDV
 10
98.1456
 20
61.7220
 30
0.0000
 41
0.7564
 42
0.7564
 43
1.0000
 50
0.0000
  0
INSERT
  8
18
  2
ROUNDV
 10
94.6404
 20
65.8368
 30
0.0000
 41
0.7564
 42
0.7564
 43
1.0000
 50
0.0000
  0
INSERT
  8
18
  2
ROUNDV
 10
94.6404
 20
65.8368
 30
0.0000
 41
0.7564
 42
0.7564
 43
1.0000
 50
0.0000
  0
INSERT
  8
18
  2
ROUNDV
 10
93.8784
 20
69.1896
 30
0.0000
 41
0.7564
 42
0.7564
 43
1.0000
 50
0.0000
  0
INSERT
  8
18
  2
ROUNDV
 10
93.8784
 20
69.1896
 30
0.0000
 41
0.7564
 42
0.7564
 43
1.0000
 50
0.0000
  0
INSERT
  8
18
  2
ROUNDV
 10
90.9828
 20
63.7032
 30
0.0000
 41
0.7564
 42
0.7564
 43
1.0000
 50
0.0000
  0
INSERT
  8
18
  2
ROUNDV
 10
90.9828
 20
63.7032
 30
0.0000
 41
0.7564
 42
0.7564
 43
1.0000
 50
0.0000
  0
INSERT
  8
18
  2
ROUNDV
 10
80.6196
 20
24.9936
 30
0.0000
 41
0.7564
 42
0.7564
 43
1.0000
 50
0.0000
  0
INSERT
  8
18
  2
ROUNDV
 10
80.6196
 20
24.9936
 30
0.0000
 41
0.7564
 42
0.7564
 43
1.0000
 50
0.0000
  0
INSERT
  8
18
  2
ROUNDV
 10
89.3064
 20
31.6992
 30
0.0000
 41
0.7564
 42
0.7564
 43
1.0000
 50
0.0000
  0
INSERT
  8
18
  2
ROUNDV
 10
89.3064
 20
31.6992
 30
0.0000
 41
0.7564
 42
0.7564
 43
1.0000
 50
0.0000
  0
INSERT
  8
18
  2
ROUNDV
 10
82.9056
 20
27.5844
 30
0.0000
 41
0.7564
 42
0.7564
 43
1.0000
 50
0.0000
  0
INSERT
  8
18
  2
ROUNDV
 10
82.9056
 20
27.5844
 30
0.0000
 41
0.7564
 42
0.7564
 43
1.0000
 50
0.0000
  0
INSERT
  8
18
  2
ROUNDV
 10
83.9724
 20
32.1564
 30
0.0000
 41
0.7564
 42
0.7564
 43
1.0000
 50
0.0000
  0
INSERT
  8
18
  2
ROUNDV
 10
83.9724
 20
32.1564
 30
0.0000
 41
0.7564
 42
0.7564
 43
1.0000
 50
0.0000
  0
INSERT
  8
18
  2
ROUNDV
 10
88.3920
 20
59.4360
 30
0.0000
 41
0.7564
 42
0.7564
 43
1.0000
 50
0.0000
  0
INSERT
  8
18
  2
ROUNDV
 10
88.3920
 20
59.4360
 30
0.0000
 41
0.7564
 42
0.7564
 43
1.0000
 50
0.0000
  0
INSERT
  8
18
  2
ROUNDV
 10
66.1416
 20
65.3796
 30
0.0000
 41
0.7564
 42
0.7564
 43
1.0000
 50
0.0000
  0
INSERT
  8
18
  2
ROUNDV
 10
66.1416
 20
65.3796
 30
0.0000
 41
0.7564
 42
0.7564
 43
1.0000
 50
0.0000
  0
INSERT
  8
18
  2
ROUNDV
 10
67.3608
 20
69.4944
 30
0.0000
 41
0.7564
 42
0.7564
 43
1.0000
 50
0.0000
  0
INSERT
  8
18
  2
ROUNDV
 10
67.3608
 20
69.4944
 30
0.0000
 41
0.7564
 42
0.7564
 43
1.0000
 50
0.0000
  0
INSERT
  8
18
  2
ROUNDV
 10
67.3608
 20
66.5988
 30
0.0000
 41
0.7564
 42
0.7564
 43
1.0000
 50
0.0000
  0
INSERT
  8
18
  2
ROUNDV
 10
67.3608
 20
66.5988
 30
0.0000
 41
0.7564
 42
0.7564
 43
1.0000
 50
0.0000
  0
INSERT
  8
18
  2
ROUNDV
 10
69.4944
 20
72.3900
 30
0.0000
 41
0.7564
 42
0.7564
 43
1.0000
 50
0.0000
  0
INSERT
  8
18
  2
ROUNDV
 10
69.4944
 20
72.3900
 30
0.0000
 41
0.7564
 42
0.7564
 43
1.0000
 50
0.0000
  0
INSERT
  8
18
  2
ROUNDV
 10
66.2940
 20
59.5884
 30
0.0000
 41
0.7564
 42
0.7564
 43
1.0000
 50
0.0000
  0
INSERT
  8
18
  2
ROUNDV
 10
66.2940
 20
59.5884
 30
0.0000
 41
0.7564
 42
0.7564
 43
1.0000
 50
0.0000
  0
INSERT
  8
18
  2
ROUNDV
 10
48.9204
 20
32.0040
 30
0.0000
 41
0.7564
 42
0.7564
 43
1.0000
 50
0.0000
  0
INSERT
  8
18
  2
ROUNDV
 10
48.9204
 20
32.0040
 30
0.0000
 41
0.7564
 42
0.7564
 43
1.0000
 50
0.0000
  0
INSERT
  8
18
  2
ROUNDV
 10
42.5196
 20
27.2796
 30
0.0000
 41
0.7564
 42
0.7564
 43
1.0000
 50
0.0000
  0
INSERT
  8
18
  2
ROUNDV
 10
42.5196
 20
27.2796
 30
0.0000
 41
0.7564
 42
0.7564
 43
1.0000
 50
0.0000
  0
INSERT
  8
18
  2
ROUNDV
 10
40.3860
 20
25.7556
 30
0.0000
 41
0.7564
 42
0.7564
 43
1.0000
 50
0.0000
  0
INSERT
  8
18
  2
ROUNDV
 10
40.3860
 20
25.7556
 30
0.0000
 41
0.7564
 42
0.7564
 43
1.0000
 50
0.0000
  0
INSERT
  8
18
  2
ROUNDV
 10
40.2336
 20
34.5948
 30
0.0000
 41
0.7564
 42
0.7564
 43
1.0000
 50
0.0000
  0
INSERT
  8
18
  2
ROUNDV
 10
40.2336
 20
34.5948
 30
0.0000
 41
0.7564
 42
0.7564
 43
1.0000
 50
0.0000
  0
INSERT
  8
18
  2
ROUNDV
 10
63.7032
 20
58.9788
 30
0.0000
 41
0.7564
 42
0.7564
 43
1.0000
 50
0.0000
  0
INSERT
  8
18
  2
ROUNDV
 10
63.7032
 20
58.9788
 30
0.0000
 41
0.7564
 42
0.7564
 43
1.0000
 50
0.0000
  0
INSERT
  8
18
  2
ROUNDV
 10
31.6992
 20
56.9976
 30
0.0000
 41
0.7564
 42
0.7564
 43
1.0000
 50
0.0000
  0
INSERT
  8
18
  2
ROUNDV
 10
31.6992
 20
56.9976
 30
0.0000
 41
0.7564
 42
0.7564
 43
1.0000
 50
0.0000
  0
INSERT
  8
18
  2
ROUNDV
 10
27.8892
 20
53.1876
 30
0.0000
 41
0.7564
 42
0.7564
 43
1.0000
 50
0.0000
  0
INSERT
  8
18
  2
ROUNDV
 10
27.8892
 20
53.1876
 30
0.0000
 41
0.7564
 42
0.7564
 43
1.0000
 50
0.0000
  0
INSERT
  8
18
  2
ROUNDV
 10
18.7452
 20
30.4800
 30
0.0000
 41
0.7564
 42
0.7564
 43
1.0000
 50
0.0000
  0
INSERT
  8
18
  2
ROUNDV
 10
18.7452
 20
30.4800
 30
0.0000
 41
0.7564
 42
0.7564
 43
1.0000
 50
0.0000
  0
INSERT
  8
18
  2
ROUNDV
 10
37.7952
 20
35.8140
 30
0.0000
 41
0.7564
 42
0.7564
 43
1.0000
 50
0.0000
  0
INSERT
  8
18
  2
ROUNDV
 10
37.7952
 20
35.8140
 30
0.0000
 41
0.7564
 42
0.7564
 43
1.0000
 50
0.0000
  0
INSERT
  8
18
  2
ROUNDV
 10
86.2584
 20
0.4572
 30
0.0000
 41
0.7564
 42
0.7564
 43
1.0000
 50
0.0000
  0
INSERT
  8
18
  2
ROUNDV
 10
86.2584
 20
0.4572
 30
0.0000
 41
0.7564
 42
0.7564
 43
1.0000
 50
0.0000
  0
INSERT
  8
18
  2
ROUNDV
 10
78.4000
 20
-17.1000
 30
0.0000
 41
1.0064
 42
1.0064
 43
1.0000
 50
0.0000
  0
INSERT
  8
18
  2
ROUNDV
 10
78.4000
 20
-17.1000
 30
0.0000
 41
1.0064
 42
1.0064
 43
1.0000
 50
0.0000
  0
INSERT
  8
18
  2
ROUNDV
 10
-0.3048
 20
34.7472
 30
0.0000
 41
0.7564
 42
0.7564
 43
1.0000
 50
0.0000
  0
INSERT
  8
18
  2
ROUNDV
 10
-0.3048
 20
34.7472
 30
0.0000
 41
0.7564
 42
0.7564
 43
1.0000
 50
0.0000
  0
INSERT
  8
18
  2
ROUNDV
 10
-0.3048
 20
40.2336
 30
0.0000
 41
0.7564
 42
0.7564
 43
1.0000
 50
0.0000
  0
INSERT
  8
18
  2
ROUNDV
 10
-0.3048
 20
40.2336
 30
0.0000
 41
0.7564
 42
0.7564
 43
1.0000
 50
0.0000
  0
INSERT
  8
18
  2
ROUNDV
 10
107.0000
 20
-29.0000
 30
0.0000
 41
4.0160
 42
4.0160
 43
1.0000
 50
0.0000
  0
INSERT
  8
18
  2
ROUNDV
 10
107.0000
 20
-29.0000
 30
0.0000
 41
4.0160
 42
4.0160
 43
1.0000
 50
0.0000
  0
INSERT
  8
18
  2
ROUNDV
 10
1.0000
 20
-29.0000
 30
0.0000
 41
4.0160
 42
4.0160
 43
1.0000
 50
0.0000
  0
INSERT
  8
18
  2
ROUNDV
 10
1.0000
 20
-29.0000
 30
0.0000
 41
4.0160
 42
4.0160
 43
1.0000
 50
0.0000
  0
INSERT
  8
18
  2
ROUNDV
 10
1.0000
 20
85.0000
 30
0.0000
 41
4.0160
 42
4.0160
 43
1.0000
 50
0.0000
  0
INSERT
  8
18
  2
ROUNDV
 10
1.0000
 20
85.0000
 30
0.0000
 41
4.0160
 42
4.0160
 43
1.0000
 50
0.0000
  0
INSERT
  8
18
  2
ROUNDV
 10
107.0000
 20
85.0000
 30
0.0000
 41
4.0160
 42
4.0160
 43
1.0000
 50
0.0000
  0
INSERT
  8
18
  2
ROUNDV
 10
107.0000
 20
85.0000
 30
0.0000
 41
4.0160
 42
4.0160
 43
1.0000
 50
0.0000
  0
INSERT
  8
18
  2
ROUNDV
 10
-0.6000
 20
17.0000
 30
0.0000
 41
1.5000
 42
1.5000
 43
1.0000
 50
0.0000
  0
INSERT
  8
18
  2
ROUNDV
 10
-0.6000
 20
17.0000
 30
0.0000
 41
1.5000
 42
1.5000
 43
1.0000
 50
0.0000
  0
INSERT
  8
18
  2
ROUNDV
 10
-0.6000
 20
14.4600
 30
0.0000
 41
1.5000
 42
1.5000
 43
1.0000
 50
0.0000
  0
INSERT
  8
18
  2
ROUNDV
 10
-0.6000
 20
14.4600
 30
0.0000
 41
1.5000
 42
1.5000
 43
1.0000
 50
0.0000
  0
INSERT
  8
18
  2
ROUNDV
 10
-0.6000
 20
11.9200
 30
0.0000
 41
1.5000
 42
1.5000
 43
1.0000
 50
0.0000
  0
INSERT
  8
18
  2
ROUNDV
 10
-0.6000
 20
11.9200
 30
0.0000
 41
1.5000
 42
1.5000
 43
1.0000
 50
0.0000
  0
INSERT
  8
18
  2
ROUNDV
 10
-0.6000
 20
9.3800
 30
0.0000
 41
1.5000
 42
1.5000
 43
1.0000
 50
0.0000
  0
INSERT
  8
18
  2
ROUNDV
 10
-0.6000
 20
9.3800
 30
0.0000
 41
1.5000
 42
1.5000
 43
1.0000
 50
0.0000
  0
INSERT
  8
18
  2
ROUNDV
 10
-0.6000
 20
6.8400
 30
0.0000
 41
1.5000
 42
1.5000
 43
1.0000
 50
0.0000
  0
INSERT
  8
18
  2
ROUNDV
 10
-0.6000
 20
6.8400
 30
0.0000
 41
1.5000
 42
1.5000
 43
1.0000
 50
0.0000
  0
INSERT
  8
18
  2
ROUNDV
 10
1.9400
 20
17.0000
 30
0.0000
 41
1.5000
 42
1.5000
 43
1.0000
 50
0.0000
  0
INSERT
  8
18
  2
ROUNDV
 10
1.9400
 20
17.0000
 30
0.0000
 41
1.5000
 42
1.5000
 43
1.0000
 50
0.0000
  0
INSERT
  8
18
  2
ROUNDV
 10
1.9400
 20
14.4600
 30
0.0000
 41
1.5000
 42
1.5000
 43
1.0000
 50
0.0000
  0
INSERT
  8
18
  2
ROUNDV
 10
1.9400
 20
14.4600
 30
0.0000
 41
1.5000
 42
1.5000
 43
1.0000
 50
0.0000
  0
INSERT
  8
18
  2
ROUNDV
 10
1.9400
 20
11.9200
 30
0.0000
 41
1.5000
 42
1.5000
 43
1.0000
 50
0.0000
  0
INSERT
  8
18
  2
ROUNDV
 10
1.9400
 20
11.9200
 30
0.0000
 41
1.5000
 42
1.5000
 43
1.0000
 50
0.0000
  0
INSERT
  8
18
  2
ROUNDV
 10
1.9400
 20
9.3800
 30
0.0000
 41
1.5000
 42
1.5000
 43
1.0000
 50
0.0000
  0
INSERT
  8
18
  2
ROUNDV
 10
1.9400
 20
9.3800
 30
0.0000
 41
1.5000
 42
1.5000
 43
1.0000
 50
0.0000
  0
INSERT
  8
18
  2
ROUNDV
 10
1.9400
 20
6.8400
 30
0.0000
 41
1.5000
 42
1.5000
 43
1.0000
 50
0.0000
  0
INSERT
  8
18
  2
ROUNDV
 10
1.9400
 20
6.8400
 30
0.0000
 41
1.5000
 42
1.5000
 43
1.0000
 50
0.0000
  0
INSERT
  8
18
  2
ROUNDV
 10
4.4800
 20
17.0000
 30
0.0000
 41
1.5000
 42
1.5000
 43
1.0000
 50
0.0000
  0
INSERT
  8
18
  2
ROUNDV
 10
4.4800
 20
17.0000
 30
0.0000
 41
1.5000
 42
1.5000
 43
1.0000
 50
0.0000
  0
INSERT
  8
18
  2
ROUNDV
 10
4.4800
 20
14.4600
 30
0.0000
 41
1.5000
 42
1.5000
 43
1.0000
 50
0.0000
  0
INSERT
  8
18
  2
ROUNDV
 10
4.4800
 20
14.4600
 30
0.0000
 41
1.5000
 42
1.5000
 43
1.0000
 50
0.0000
  0
INSERT
  8
18
  2
ROUNDV
 10
4.4800
 20
11.9200
 30
0.0000
 41
1.5000
 42
1.5000
 43
1.0000
 50
0.0000
  0
INSERT
  8
18
  2
ROUNDV
 10
4.4800
 20
11.9200
 30
0.0000
 41
1.5000
 42
1.5000
 43
1.0000
 50
0.0000
  0
INSERT
  8
18
  2
ROUNDV
 10
4.4800
 20
9.3800
 30
0.0000
 41
1.5000
 42
1.5000
 43
1.0000
 50
0.0000
  0
INSERT
  8
18
  2
ROUNDV
 10
4.4800
 20
9.3800
 30
0.0000
 41
1.5000
 42
1.5000
 43
1.0000
 50
0.0000
  0
INSERT
  8
18
  2
ROUNDV
 10
4.4800
 20
6.8400
 30
0.0000
 41
1.5000
 42
1.5000
 43
1.0000
 50
0.0000
  0
INSERT
  8
18
  2
ROUNDV
 10
4.4800
 20
6.8400
 30
0.0000
 41
1.5000
 42
1.5000
 43
1.0000
 50
0.0000
  0
INSERT
  8
18
  2
ROUNDV
 10
7.0200
 20
17.0000
 30
0.0000
 41
1.5000
 42
1.5000
 43
1.0000
 50
0.0000
  0
INSERT
  8
18
  2
ROUNDV
 10
7.0200
 20
17.0000
 30
0.0000
 41
1.5000
 42
1.5000
 43
1.0000
 50
0.0000
  0
INSERT
  8
18
  2
ROUNDV
 10
7.0200
 20
14.4600
 30
0.0000
 41
1.5000
 42
1.5000
 43
1.0000
 50
0.0000
  0
INSERT
  8
18
  2
ROUNDV
 10
7.0200
 20
14.4600
 30
0.0000
 41
1.5000
 42
1.5000
 43
1.0000
 50
0.0000
  0
INSERT
  8
18
  2
ROUNDV
 10
7.0200
 20
11.9200
 30
0.0000
 41
1.5000
 42
1.5000
 43
1.0000
 50
0.0000
  0
INSERT
  8
18
  2
ROUNDV
 10
7.0200
 20
11.9200
 30
0.0000
 41
1.5000
 42
1.5000
 43
1.0000
 50
0.0000
  0
INSERT
  8
18
  2
ROUNDV
 10
7.0200
 20
9.3800
 30
0.0000
 41
1.5000
 42
1.5000
 43
1.0000
 50
0.0000
  0
INSERT
  8
18
  2
ROUNDV
 10
7.0200
 20
9.3800
 30
0.0000
 41
1.5000
 42
1.5000
 43
1.0000
 50
0.0000
  0
INSERT
  8
18
  2
ROUNDV
 10
7.0200
 20
6.8400
 30
0.0000
 41
1.5000
 42
1.5000
 43
1.0000
 50
0.0000
  0
INSERT
  8
18
  2
ROUNDV
 10
7.0200
 20
6.8400
 30
0.0000
 41
1.5000
 42
1.5000
 43
1.0000
 50
0.0000
  0
INSERT
  8
18
  2
ROUNDV
 10
39.9288
 20
62.4840
 30
0.0000
 41
0.7564
 42
0.7564
 43
1.0000
 50
0.0000
  0
INSERT
  8
18
  2
ROUNDV
 10
39.9288
 20
62.4840
 30
0.0000
 41
0.7564
 42
0.7564
 43
1.0000
 50
0.0000
  0
INSERT
  8
18
  2
ROUNDV
 10
35.2044
 20
61.7220
 30
0.0000
 41
0.7564
 42
0.7564
 43
1.0000
 50
0.0000
  0
INSERT
  8
18
  2
ROUNDV
 10
35.2044
 20
61.7220
 30
0.0000
 41
0.7564
 42
0.7564
 43
1.0000
 50
0.0000
  0
INSERT
  8
18
  2
ROUNDV
 10
33.9852
 20
64.9224
 30
0.0000
 41
0.7564
 42
0.7564
 43
1.0000
 50
0.0000
  0
INSERT
  8
18
  2
ROUNDV
 10
33.9852
 20
64.9224
 30
0.0000
 41
0.7564
 42
0.7564
 43
1.0000
 50
0.0000
  0
INSERT
  8
18
  2
ROUNDV
 10
45.1104
 20
56.0832
 30
0.0000
 41
0.7564
 42
0.7564
 43
1.0000
 50
0.0000
  0
INSERT
  8
18
  2
ROUNDV
 10
45.1104
 20
56.0832
 30
0.0000
 41
0.7564
 42
0.7564
 43
1.0000
 50
0.0000
  0
INSERT
  8
18
  2
ROUNDV
 10
22.8600
 20
66.1416
 30
0.0000
 41
0.7564
 42
0.7564
 43
1.0000
 50
0.0000
  0
INSERT
  8
18
  2
ROUNDV
 10
22.8600
 20
66.1416
 30
0.0000
 41
0.7564
 42
0.7564
 43
1.0000
 50
0.0000
  0
INSERT
  8
18
  2
ROUNDV
 10
31.5468
 20
54.2544
 30
0.0000
 41
0.7564
 42
0.7564
 43
1.0000
 50
0.0000
  0
INSERT
  8
18
  2
ROUNDV
 10
31.5468
 20
54.2544
 30
0.0000
 41
0.7564
 42
0.7564
 43
1.0000
 50
0.0000
  0
INSERT
  8
18
  2
ROUNDV
 10
30.0704
 20
68.2656
 30
0.0000
 41
0.7564
 42
0.7564
 43
1.0000
 50
0.0000
  0
INSERT
  8
18
  2
ROUNDV
 10
30.0704
 20
68.2656
 30
0.0000
 41
0.7564
 42
0.7564
 43
1.0000
 50
0.0000
  0
INSERT
  8
18
  2
ROUNDV
 10
28.6512
 20
48.3108
 30
0.0000
 41
0.7564
 42
0.7564
 43
1.0000
 50
0.0000
  0
INSERT
  8
18
  2
ROUNDV
 10
28.6512
 20
48.3108
 30
0.0000
 41
0.7564
 42
0.7564
 43
1.0000
 50
0.0000
  0
INSERT
  8
18
  2
ROUNDV
 10
25.1460
 20
49.5300
 30
0.0000
 41
0.7564
 42
0.7564
 43
1.0000
 50
0.0000
  0
INSERT
  8
18
  2
ROUNDV
 10
25.1460
 20
49.5300
 30
0.0000
 41
0.7564
 42
0.7564
 43
1.0000
 50
0.0000
  0
INSERT
  8
18
  2
ROUNDV
 10
24.8460
 20
53.6496
 30
0.0000
 41
0.7564
 42
0.7564
 43
1.0000
 50
0.0000
  0
INSERT
  8
18
  2
ROUNDV
 10
24.8460
 20
53.6496
 30
0.0000
 41
0.7564
 42
0.7564
 43
1.0000
 50
0.0000
  0
INSERT
  8
18
  2
ROUNDV
 10
27.1272
 20
55.9308
 30
0.0000
 41
0.7564
 42
0.7564
 43
1.0000
 50
0.0000
  0
INSERT
  8
18
  2
ROUNDV
 10
27.1272
 20
55.9308
 30
0.0000
 41
0.7564
 42
0.7564
 43
1.0000
 50
0.0000
  0
INSERT
  8
18
  2
ROUNDV
 10
9.5600
 20
17.0000
 30
0.0000
 41
1.5000
 42
1.5000
 43
1.0000
 50
0.0000
  0
INSERT
  8
18
  2
ROUNDV
 10
9.5600
 20
17.0000
 30
0.0000
 41
1.5000
 42
1.5000
 43
1.0000
 50
0.0000
  0
INSERT
  8
18
  2
ROUNDV
 10
9.5600
 20
14.4600
 30
0.0000
 41
1.5000
 42
1.5000
 43
1.0000
 50
0.0000
  0
INSERT
  8
18
  2
ROUNDV
 10
9.5600
 20
14.4600
 30
0.0000
 41
1.5000
 42
1.5000
 43
1.0000
 50
0.0000
  0
INSERT
  8
18
  2
ROUNDV
 10
9.5600
 20
11.9200
 30
0.0000
 41
1.5000
 42
1.5000
 43
1.0000
 50
0.0000
  0
INSERT
  8
18
  2
ROUNDV
 10
9.5600
 20
11.9200
 30
0.0000
 41
1.5000
 42
1.5000
 43
1.0000
 50
0.0000
  0
INSERT
  8
18
  2
ROUNDV
 10
9.5600
 20
9.3800
 30
0.0000
 41
1.5000
 42
1.5000
 43
1.0000
 50
0.0000
  0
INSERT
  8
18
  2
ROUNDV
 10
9.5600
 20
9.3800
 30
0.0000
 41
1.5000
 42
1.5000
 43
1.0000
 50
0.0000
  0
INSERT
  8
18
  2
ROUNDV
 10
9.5600
 20
6.8400
 30
0.0000
 41
1.5000
 42
1.5000
 43
1.0000
 50
0.0000
  0
INSERT
  8
18
  2
ROUNDV
 10
9.5600
 20
6.8400
 30
0.0000
 41
1.5000
 42
1.5000
 43
1.0000
 50
0.0000
  0
INSERT
  8
18
  2
ROUNDV
 10
12.1000
 20
17.0000
 30
0.0000
 41
1.5000
 42
1.5000
 43
1.0000
 50
0.0000
  0
INSERT
  8
18
  2
ROUNDV
 10
12.1000
 20
17.0000
 30
0.0000
 41
1.5000
 42
1.5000
 43
1.0000
 50
0.0000
  0
INSERT
  8
18
  2
ROUNDV
 10
12.1000
 20
14.4600
 30
0.0000
 41
1.5000
 42
1.5000
 43
1.0000
 50
0.0000
  0
INSERT
  8
18
  2
ROUNDV
 10
12.1000
 20
14.4600
 30
0.0000
 41
1.5000
 42
1.5000
 43
1.0000
 50
0.0000
  0
INSERT
  8
18
  2
ROUNDV
 10
12.1000
 20
11.9200
 30
0.0000
 41
1.5000
 42
1.5000
 43
1.0000
 50
0.0000
  0
INSERT
  8
18
  2
ROUNDV
 10
12.1000
 20
11.9200
 30
0.0000
 41
1.5000
 42
1.5000
 43
1.0000
 50
0.0000
  0
INSERT
  8
18
  2
ROUNDV
 10
12.1000
 20
9.3800
 30
0.0000
 41
1.5000
 42
1.5000
 43
1.0000
 50
0.0000
  0
INSERT
  8
18
  2
ROUNDV
 10
12.1000
 20
9.3800
 30
0.0000
 41
1.5000
 42
1.5000
 43
1.0000
 50
0.0000
  0
INSERT
  8
18
  2
ROUNDV
 10
12.1000
 20
6.8400
 30
0.0000
 41
1.5000
 42
1.5000
 43
1.0000
 50
0.0000
  0
INSERT
  8
18
  2
ROUNDV
 10
12.1000
 20
6.8400
 30
0.0000
 41
1.5000
 42
1.5000
 43
1.0000
 50
0.0000
  0
INSERT
  8
18
  2
ROUNDV
 10
14.6400
 20
6.8400
 30
0.0000
 41
1.5000
 42
1.5000
 43
1.0000
 50
0.0000
  0
INSERT
  8
18
  2
ROUNDV
 10
14.6400
 20
6.8400
 30
0.0000
 41
1.5000
 42
1.5000
 43
1.0000
 50
0.0000
  0
INSERT
  8
18
  2
ROUNDV
 10
14.6400
 20
9.3800
 30
0.0000
 41
1.5000
 42
1.5000
 43
1.0000
 50
0.0000
  0
INSERT
  8
18
  2
ROUNDV
 10
14.6400
 20
9.3800
 30
0.0000
 41
1.5000
 42
1.5000
 43
1.0000
 50
0.0000
  0
INSERT
  8
18
  2
ROUNDV
 10
14.6400
 20
11.9400
 30
0.0000
 41
1.5000
 42
1.5000
 43
1.0000
 50
0.0000
  0
INSERT
  8
18
  2
ROUNDV
 10
14.6400
 20
11.9400
 30
0.0000
 41
1.5000
 42
1.5000
 43
1.0000
 50
0.0000
  0
INSERT
  8
18
  2
ROUNDV
 10
14.6400
 20
14.4600
 30
0.0000
 41
1.5000
 42
1.5000
 43
1.0000
 50
0.0000
  0
INSERT
  8
18
  2
ROUNDV
 10
14.6400
 20
14.4600
 30
0.0000
 41
1.5000
 42
1.5000
 43
1.0000
 50
0.0000
  0
INSERT
  8
18
  2
ROUNDV
 10
14.6400
 20
17.0000
 30
0.0000
 41
1.5000
 42
1.5000
 43
1.0000
 50
0.0000
  0
INSERT
  8
18
  2
ROUNDV
 10
14.6400
 20
17.0000
 30
0.0000
 41
1.5000
 42
1.5000
 43
1.0000
 50
0.0000
  0
INSERT
  8
18
  2
ROUNDV
 10
75.7428
 20
74.3712
 30
0.0000
 41
0.7564
 42
0.7564
 43
1.0000
 50
0.0000
  0
INSERT
  8
18
  2
ROUNDV
 10
75.7428
 20
74.3712
 30
0.0000
 41
0.7564
 42
0.7564
 43
1.0000
 50
0.0000
  0
INSERT
  8
18
  2
ROUNDV
 10
77.4668
 20
69.4516
 30
0.0000
 41
0.7564
 42
0.7564
 43
1.0000
 50
0.0000
  0
INSERT
  8
18
  2
ROUNDV
 10
77.4668
 20
69.4516
 30
0.0000
 41
0.7564
 42
0.7564
 43
1.0000
 50
0.0000
  0
INSERT
  8
18
  2
ROUNDV
 10
76.5048
 20
71.1708
 30
0.0000
 41
0.7564
 42
0.7564
 43
1.0000
 50
0.0000
  0
INSERT
  8
18
  2
ROUNDV
 10
76.5048
 20
71.1708
 30
0.0000
 41
0.7564
 42
0.7564
 43
1.0000
 50
0.0000
  0
INSERT
  8
18
  2
ROUNDV
 10
58.5216
 20
77.8764
 30
0.0000
 41
0.7564
 42
0.7564
 43
1.0000
 50
0.0000
  0
INSERT
  8
18
  2
ROUNDV
 10
58.5216
 20
77.8764
 30
0.0000
 41
0.7564
 42
0.7564
 43
1.0000
 50
0.0000
  0
INSERT
  8
18
  2
ROUNDV
 10
81.1768
 20
73.1472
 30
0.0000
 41
0.7564
 42
0.7564
 43
1.0000
 50
0.0000
  0
INSERT
  8
18
  2
ROUNDV
 10
81.1768
 20
73.1472
 30
0.0000
 41
0.7564
 42
0.7564
 43
1.0000
 50
0.0000
  0
INSERT
  8
18
  2
ROUNDV
 10
64.7700
 20
57.9120
 30
0.0000
 41
0.7564
 42
0.7564
 43
1.0000
 50
0.0000
  0
INSERT
  8
18
  2
ROUNDV
 10
64.7700
 20
57.9120
 30
0.0000
 41
0.7564
 42
0.7564
 43
1.0000
 50
0.0000
  0
INSERT
  8
18
  2
ROUNDV
 10
62.7888
 20
57.9120
 30
0.0000
 41
0.7564
 42
0.7564
 43
1.0000
 50
0.0000
  0
INSERT
  8
18
  2
ROUNDV
 10
62.7888
 20
57.9120
 30
0.0000
 41
0.7564
 42
0.7564
 43
1.0000
 50
0.0000
  0
INSERT
  8
18
  2
ROUNDV
 10
59.7408
 20
60.9600
 30
0.0000
 41
0.7564
 42
0.7564
 43
1.0000
 50
0.0000
  0
INSERT
  8
18
  2
ROUNDV
 10
59.7408
 20
60.9600
 30
0.0000
 41
0.7564
 42
0.7564
 43
1.0000
 50
0.0000
  0
INSERT
  8
18
  2
ROUNDV
 10
66.1416
 20
57.9120
 30
0.0000
 41
0.7564
 42
0.7564
 43
1.0000
 50
0.0000
  0
INSERT
  8
18
  2
ROUNDV
 10
66.1416
 20
57.9120
 30
0.0000
 41
0.7564
 42
0.7564
 43
1.0000
 50
0.0000
  0
INSERT
  8
18
  2
ROUNDV
 10
32.3088
 20
20.4216
 30
0.0000
 41
0.7564
 42
0.7564
 43
1.0000
 50
0.0000
  0
INSERT
  8
18
  2
ROUNDV
 10
32.3088
 20
20.4216
 30
0.0000
 41
0.7564
 42
0.7564
 43
1.0000
 50
0.0000
  0
INSERT
  8
18
  2
ROUNDV
 10
37.4904
 20
26.6700
 30
0.0000
 41
0.7564
 42
0.7564
 43
1.0000
 50
0.0000
  0
INSERT
  8
18
  2
ROUNDV
 10
37.4904
 20
26.6700
 30
0.0000
 41
0.7564
 42
0.7564
 43
1.0000
 50
0.0000
  0
INSERT
  8
18
  2
ROUNDV
 10
36.8808
 20
16.7640
 30
0.0000
 41
0.7564
 42
0.7564
 43
1.0000
 50
0.0000
  0
INSERT
  8
18
  2
ROUNDV
 10
36.8808
 20
16.7640
 30
0.0000
 41
0.7564
 42
0.7564
 43
1.0000
 50
0.0000
  0
INSERT
  8
18
  2
ROUNDV
 10
44.3484
 20
20.7264
 30
0.0000
 41
0.7564
 42
0.7564
 43
1.0000
 50
0.0000
  0
INSERT
  8
18
  2
ROUNDV
 10
44.3484
 20
20.7264
 30
0.0000
 41
0.7564
 42
0.7564
 43
1.0000
 50
0.0000
  0
INSERT
  8
18
  2
ROUNDV
 10
40.2336
 20
18.2880
 30
0.0000
 41
0.7564
 42
0.7564
 43
1.0000
 50
0.0000
  0
INSERT
  8
18
  2
ROUNDV
 10
40.2336
 20
18.2880
 30
0.0000
 41
0.7564
 42
0.7564
 43
1.0000
 50
0.0000
  0
INSERT
  8
18
  2
ROUNDV
 10
52.1208
 20
18.2880
 30
0.0000
 41
0.7564
 42
0.7564
 43
1.0000
 50
0.0000
  0
INSERT
  8
18
  2
ROUNDV
 10
52.1208
 20
18.2880
 30
0.0000
 41
0.7564
 42
0.7564
 43
1.0000
 50
0.0000
  0
INSERT
  8
18
  2
ROUNDV
 10
41.7576
 20
35.3568
 30
0.0000
 41
0.7564
 42
0.7564
 43
1.0000
 50
0.0000
  0
INSERT
  8
18
  2
ROUNDV
 10
41.7576
 20
35.3568
 30
0.0000
 41
0.7564
 42
0.7564
 43
1.0000
 50
0.0000
  0
INSERT
  8
18
  2
ROUNDV
 10
51.0540
 20
34.4424
 30
0.0000
 41
0.7564
 42
0.7564
 43
1.0000
 50
0.0000
  0
INSERT
  8
18
  2
ROUNDV
 10
51.0540
 20
34.4424
 30
0.0000
 41
0.7564
 42
0.7564
 43
1.0000
 50
0.0000
  0
INSERT
  8
18
  2
ROUNDV
 10
50.1396
 20
36.2712
 30
0.0000
 41
0.7564
 42
0.7564
 43
1.0000
 50
0.0000
  0
INSERT
  8
18
  2
ROUNDV
 10
50.1396
 20
36.2712
 30
0.0000
 41
0.7564
 42
0.7564
 43
1.0000
 50
0.0000
  0
INSERT
  8
18
  2
ROUNDV
 10
52.8828
 20
31.8516
 30
0.0000
 41
0.7564
 42
0.7564
 43
1.0000
 50
0.0000
  0
INSERT
  8
18
  2
ROUNDV
 10
52.8828
 20
31.8516
 30
0.0000
 41
0.7564
 42
0.7564
 43
1.0000
 50
0.0000
  0
INSERT
  8
18
  2
ROUNDV
 10
44.5008
 20
35.0520
 30
0.0000
 41
0.7564
 42
0.7564
 43
1.0000
 50
0.0000
  0
INSERT
  8
18
  2
ROUNDV
 10
44.5008
 20
35.0520
 30
0.0000
 41
0.7564
 42
0.7564
 43
1.0000
 50
0.0000
  0
INSERT
  8
18
  2
ROUNDV
 10
52.1208
 20
25.6032
 30
0.0000
 41
0.7564
 42
0.7564
 43
1.0000
 50
0.0000
  0
INSERT
  8
18
  2
ROUNDV
 10
52.1208
 20
25.6032
 30
0.0000
 41
0.7564
 42
0.7564
 43
1.0000
 50
0.0000
  0
INSERT
  8
18
  2
ROUNDV
 10
50.2920
 20
29.1084
 30
0.0000
 41
0.7564
 42
0.7564
 43
1.0000
 50
0.0000
  0
INSERT
  8
18
  2
ROUNDV
 10
50.2920
 20
29.1084
 30
0.0000
 41
0.7564
 42
0.7564
 43
1.0000
 50
0.0000
  0
INSERT
  8
18
  2
ROUNDV
 10
46.6344
 20
29.4132
 30
0.0000
 41
0.7564
 42
0.7564
 43
1.0000
 50
0.0000
  0
INSERT
  8
18
  2
ROUNDV
 10
46.6344
 20
29.4132
 30
0.0000
 41
0.7564
 42
0.7564
 43
1.0000
 50
0.0000
  0
INSERT
  8
18
  2
ROUNDV
 10
45.5676
 20
22.0980
 30
0.0000
 41
0.7564
 42
0.7564
 43
1.0000
 50
0.0000
  0
INSERT
  8
18
  2
ROUNDV
 10
45.5676
 20
22.0980
 30
0.0000
 41
0.7564
 42
0.7564
 43
1.0000
 50
0.0000
  0
INSERT
  8
18
  2
ROUNDV
 10
72.0852
 20
21.1836
 30
0.0000
 41
0.7564
 42
0.7564
 43
1.0000
 50
0.0000
  0
INSERT
  8
18
  2
ROUNDV
 10
72.0852
 20
21.1836
 30
0.0000
 41
0.7564
 42
0.7564
 43
1.0000
 50
0.0000
  0
INSERT
  8
18
  2
ROUNDV
 10
77.7240
 20
15.5448
 30
0.0000
 41
0.7564
 42
0.7564
 43
1.0000
 50
0.0000
  0
INSERT
  8
18
  2
ROUNDV
 10
77.7240
 20
15.5448
 30
0.0000
 41
0.7564
 42
0.7564
 43
1.0000
 50
0.0000
  0
INSERT
  8
18
  2
ROUNDV
 10
80.4672
 20
17.8308
 30
0.0000
 41
0.7564
 42
0.7564
 43
1.0000
 50
0.0000
  0
INSERT
  8
18
  2
ROUNDV
 10
80.4672
 20
17.8308
 30
0.0000
 41
0.7564
 42
0.7564
 43
1.0000
 50
0.0000
  0
INSERT
  8
18
  2
ROUNDV
 10
76.3524
 20
16.6116
 30
0.0000
 41
0.7564
 42
0.7564
 43
1.0000
 50
0.0000
  0
INSERT
  8
18
  2
ROUNDV
 10
76.3524
 20
16.6116
 30
0.0000
 41
0.7564
 42
0.7564
 43
1.0000
 50
0.0000
  0
INSERT
  8
18
  2
ROUNDV
 10
95.7072
 20
17.9832
 30
0.0000
 41
0.7564
 42
0.7564
 43
1.0000
 50
0.0000
  0
INSERT
  8
18
  2
ROUNDV
 10
95.7072
 20
17.9832
 30
0.0000
 41
0.7564
 42
0.7564
 43
1.0000
 50
0.0000
  0
INSERT
  8
18
  2
ROUNDV
 10
90.6780
 20
32.1564
 30
0.0000
 41
0.7564
 42
0.7564
 43
1.0000
 50
0.0000
  0
INSERT
  8
18
  2
ROUNDV
 10
90.6780
 20
32.1564
 30
0.0000
 41
0.7564
 42
0.7564
 43
1.0000
 50
0.0000
  0
INSERT
  8
18
  2
ROUNDV
 10
85.4440
 20
41.3432
 30
0.0000
 41
0.7564
 42
0.7564
 43
1.0000
 50
0.0000
  0
INSERT
  8
18
  2
ROUNDV
 10
85.4440
 20
41.3432
 30
0.0000
 41
0.7564
 42
0.7564
 43
1.0000
 50
0.0000
  0
INSERT
  8
18
  2
ROUNDV
 10
83.9724
 20
37.3380
 30
0.0000
 41
0.7564
 42
0.7564
 43
1.0000
 50
0.0000
  0
INSERT
  8
18
  2
ROUNDV
 10
83.9724
 20
37.3380
 30
0.0000
 41
0.7564
 42
0.7564
 43
1.0000
 50
0.0000
  0
INSERT
  8
18
  2
ROUNDV
 10
103.9368
 20
53.3400
 30
0.0000
 41
0.7564
 42
0.7564
 43
1.0000
 50
0.0000
  0
INSERT
  8
18
  2
ROUNDV
 10
103.9368
 20
53.3400
 30
0.0000
 41
0.7564
 42
0.7564
 43
1.0000
 50
0.0000
  0
INSERT
  8
18
  2
ROUNDV
 10
103.1748
 20
69.1896
 30
0.0000
 41
0.7564
 42
0.7564
 43
1.0000
 50
0.0000
  0
INSERT
  8
18
  2
ROUNDV
 10
103.1748
 20
69.1896
 30
0.0000
 41
0.7564
 42
0.7564
 43
1.0000
 50
0.0000
  0
INSERT
  8
18
  2
ROUNDV
 10
92.9640
 20
55.7784
 30
0.0000
 41
0.7564
 42
0.7564
 43
1.0000
 50
0.0000
  0
INSERT
  8
18
  2
ROUNDV
 10
92.9640
 20
55.7784
 30
0.0000
 41
0.7564
 42
0.7564
 43
1.0000
 50
0.0000
  0
INSERT
  8
18
  2
ROUNDV
 10
100.2792
 20
54.7116
 30
0.0000
 41
0.7564
 42
0.7564
 43
1.0000
 50
0.0000
  0
INSERT
  8
18
  2
ROUNDV
 10
100.2792
 20
54.7116
 30
0.0000
 41
0.7564
 42
0.7564
 43
1.0000
 50
0.0000
  0
INSERT
  8
18
  2
ROUNDV
 10
107.8992
 20
57.6072
 30
0.0000
 41
0.7564
 42
0.7564
 43
1.0000
 50
0.0000
  0
INSERT
  8
18
  2
ROUNDV
 10
107.8992
 20
57.6072
 30
0.0000
 41
0.7564
 42
0.7564
 43
1.0000
 50
0.0000
  0
INSERT
  8
18
  2
ROUNDV
 10
108.6564
 20
63.3984
 30
0.0000
 41
0.7564
 42
0.7564
 43
1.0000
 50
0.0000
  0
INSERT
  8
18
  2
ROUNDV
 10
108.6564
 20
63.3984
 30
0.0000
 41
0.7564
 42
0.7564
 43
1.0000
 50
0.0000
  0
INSERT
  8
18
  2
ROUNDV
 10
107.5944
 20
70.4088
 30
0.0000
 41
0.7564
 42
0.7564
 43
1.0000
 50
0.0000
  0
INSERT
  8
18
  2
ROUNDV
 10
107.5944
 20
70.4088
 30
0.0000
 41
0.7564
 42
0.7564
 43
1.0000
 50
0.0000
  0
INSERT
  8
18
  2
ROUNDV
 10
97.2312
 20
64.6176
 30
0.0000
 41
0.7564
 42
0.7564
 43
1.0000
 50
0.0000
  0
INSERT
  8
18
  2
ROUNDV
 10
97.2312
 20
64.6176
 30
0.0000
 41
0.7564
 42
0.7564
 43
1.0000
 50
0.0000
  0
INSERT
  8
18
  2
ROUNDV
 10
105.1560
 20
67.9704
 30
0.0000
 41
0.7564
 42
0.7564
 43
1.0000
 50
0.0000
  0
INSERT
  8
18
  2
ROUNDV
 10
105.1560
 20
67.9704
 30
0.0000
 41
0.7564
 42
0.7564
 43
1.0000
 50
0.0000
  0
INSERT
  8
18
  2
ROUNDV
 10
90.6780
 20
69.4944
 30
0.0000
 41
0.7564
 42
0.7564
 43
1.0000
 50
0.0000
  0
INSERT
  8
18
  2
ROUNDV
 10
90.6780
 20
69.4944
 30
0.0000
 41
0.7564
 42
0.7564
 43
1.0000
 50
0.0000
  0
INSERT
  8
18
  2
ROUNDV
 10
86.1060
 20
63.0936
 30
0.0000
 41
0.7564
 42
0.7564
 43
1.0000
 50
0.0000
  0
INSERT
  8
18
  2
ROUNDV
 10
86.1060
 20
63.0936
 30
0.0000
 41
0.7564
 42
0.7564
 43
1.0000
 50
0.0000
  0
INSERT
  8
18
  2
ROUNDV
 10
86.1060
 20
70.5612
 30
0.0000
 41
0.7564
 42
0.7564
 43
1.0000
 50
0.0000
  0
INSERT
  8
18
  2
ROUNDV
 10
86.1060
 20
70.5612
 30
0.0000
 41
0.7564
 42
0.7564
 43
1.0000
 50
0.0000
  0
INSERT
  8
18
  2
ROUNDV
 10
39.0144
 20
23.0124
 30
0.0000
 41
0.7564
 42
0.7564
 43
1.0000
 50
0.0000
  0
INSERT
  8
18
  2
ROUNDV
 10
39.0144
 20
23.0124
 30
0.0000
 41
0.7564
 42
0.7564
 43
1.0000
 50
0.0000
  0
INSERT
  8
18
  2
ROUNDV
 10
47.3964
 20
17.3736
 30
0.0000
 41
0.7564
 42
0.7564
 43
1.0000
 50
0.0000
  0
INSERT
  8
18
  2
ROUNDV
 10
47.3964
 20
17.3736
 30
0.0000
 41
0.7564
 42
0.7564
 43
1.0000
 50
0.0000
  0
INSERT
  8
18
  2
ROUNDV
 10
108.2040
 20
75.2856
 30
0.0000
 41
0.7564
 42
0.7564
 43
1.0000
 50
0.0000
  0
INSERT
  8
18
  2
ROUNDV
 10
108.2040
 20
75.2856
 30
0.0000
 41
0.7564
 42
0.7564
 43
1.0000
 50
0.0000
  0
INSERT
  8
18
  2
ROUNDV
 10
107.2944
 20
68.1704
 30
0.0000
 41
0.7564
 42
0.7564
 43
1.0000
 50
0.0000
  0
INSERT
  8
18
  2
ROUNDV
 10
107.2944
 20
68.1704
 30
0.0000
 41
0.7564
 42
0.7564
 43
1.0000
 50
0.0000
  0
INSERT
  8
18
  2
ROUNDV
 10
92.5068
 20
69.1896
 30
0.0000
 41
0.7564
 42
0.7564
 43
1.0000
 50
0.0000
  0
INSERT
  8
18
  2
ROUNDV
 10
92.5068
 20
69.1896
 30
0.0000
 41
0.7564
 42
0.7564
 43
1.0000
 50
0.0000
  0
INSERT
  8
18
  2
ROUNDV
 10
89.0016
 20
69.3420
 30
0.0000
 41
0.7564
 42
0.7564
 43
1.0000
 50
0.0000
  0
INSERT
  8
18
  2
ROUNDV
 10
89.0016
 20
69.3420
 30
0.0000
 41
0.7564
 42
0.7564
 43
1.0000
 50
0.0000
  0
INSERT
  8
18
  2
ROUNDV
 10
103.2796
 20
63.4460
 30
0.0000
 41
0.7564
 42
0.7564
 43
1.0000
 50
0.0000
  0
INSERT
  8
18
  2
ROUNDV
 10
103.2796
 20
63.4460
 30
0.0000
 41
0.7564
 42
0.7564
 43
1.0000
 50
0.0000
  0
INSERT
  8
18
  2
ROUNDV
 10
104.6988
 20
62.0268
 30
0.0000
 41
0.7564
 42
0.7564
 43
1.0000
 50
0.0000
  0
INSERT
  8
18
  2
ROUNDV
 10
104.6988
 20
62.0268
 30
0.0000
 41
0.7564
 42
0.7564
 43
1.0000
 50
0.0000
  0
INSERT
  8
18
  2
ROUNDV
 10
43.1292
 20
35.9664
 30
0.0000
 41
0.7564
 42
0.7564
 43
1.0000
 50
0.0000
  0
INSERT
  8
18
  2
ROUNDV
 10
43.1292
 20
35.9664
 30
0.0000
 41
0.7564
 42
0.7564
 43
1.0000
 50
0.0000
  0
INSERT
  8
18
  2
ROUNDV
 10
59.1312
 20
34.2900
 30
0.0000
 41
0.7564
 42
0.7564
 43
1.0000
 50
0.0000
  0
INSERT
  8
18
  2
ROUNDV
 10
59.1312
 20
34.2900
 30
0.0000
 41
0.7564
 42
0.7564
 43
1.0000
 50
0.0000
  0
INSERT
  8
18
  2
ROUNDV
 10
40.8432
 20
54.5592
 30
0.0000
 41
0.7564
 42
0.7564
 43
1.0000
 50
0.0000
  0
INSERT
  8
18
  2
ROUNDV
 10
40.8432
 20
54.5592
 30
0.0000
 41
0.7564
 42
0.7564
 43
1.0000
 50
0.0000
  0
INSERT
  8
18
  2
ROUNDV
 10
42.3672
 20
53.0352
 30
0.0000
 41
0.7564
 42
0.7564
 43
1.0000
 50
0.0000
  0
INSERT
  8
18
  2
ROUNDV
 10
42.3672
 20
53.0352
 30
0.0000
 41
0.7564
 42
0.7564
 43
1.0000
 50
0.0000
  0
INSERT
  8
18
  2
ROUNDV
 10
91.7448
 20
-1.2192
 30
0.0000
 41
0.7564
 42
0.7564
 43
1.0000
 50
0.0000
  0
INSERT
  8
18
  2
ROUNDV
 10
91.7448
 20
-1.2192
 30
0.0000
 41
0.7564
 42
0.7564
 43
1.0000
 50
0.0000
  0
INSERT
  8
18
  2
ROUNDV
 10
99.0600
 20
-2.4384
 30
0.0000
 41
0.7564
 42
0.7564
 43
1.0000
 50
0.0000
  0
INSERT
  8
18
  2
ROUNDV
 10
99.0600
 20
-2.4384
 30
0.0000
 41
0.7564
 42
0.7564
 43
1.0000
 50
0.0000
  0
INSERT
  8
18
  2
ROUNDV
 10
48.9204
 20
30.4800
 30
0.0000
 41
0.7564
 42
0.7564
 43
1.0000
 50
0.0000
  0
INSERT
  8
18
  2
ROUNDV
 10
48.9204
 20
30.4800
 30
0.0000
 41
0.7564
 42
0.7564
 43
1.0000
 50
0.0000
  0
INSERT
  8
18
  2
ROUNDV
 10
45.8724
 20
11.8872
 30
0.0000
 41
0.7564
 42
0.7564
 43
1.0000
 50
0.0000
  0
INSERT
  8
18
  2
ROUNDV
 10
45.8724
 20
11.8872
 30
0.0000
 41
0.7564
 42
0.7564
 43
1.0000
 50
0.0000
  0
INSERT
  8
18
  2
ROUNDV
 10
78.3336
 20
12.3444
 30
0.0000
 41
0.7564
 42
0.7564
 43
1.0000
 50
0.0000
  0
INSERT
  8
18
  2
ROUNDV
 10
78.3336
 20
12.3444
 30
0.0000
 41
0.7564
 42
0.7564
 43
1.0000
 50
0.0000
  0
INSERT
  8
18
  2
ROUNDV
 10
83.2104
 20
2.5908
 30
0.0000
 41
0.7564
 42
0.7564
 43
1.0000
 50
0.0000
  0
INSERT
  8
18
  2
ROUNDV
 10
83.2104
 20
2.5908
 30
0.0000
 41
0.7564
 42
0.7564
 43
1.0000
 50
0.0000
  0
INSERT
  8
18
  2
ROUNDV
 10
88.6968
 20
58.2168
 30
0.0000
 41
0.7564
 42
0.7564
 43
1.0000
 50
0.0000
  0
INSERT
  8
18
  2
ROUNDV
 10
88.6968
 20
58.2168
 30
0.0000
 41
0.7564
 42
0.7564
 43
1.0000
 50
0.0000
  0
INSERT
  8
18
  2
ROUNDV
 10
87.0204
 20
40.6908
 30
0.0000
 41
0.7564
 42
0.7564
 43
1.0000
 50
0.0000
  0
INSERT
  8
18
  2
ROUNDV
 10
87.0204
 20
40.6908
 30
0.0000
 41
0.7564
 42
0.7564
 43
1.0000
 50
0.0000
  0
INSERT
  8
18
  2
ROUNDV
 10
39.9668
 20
41.0192
 30
0.0000
 41
0.7564
 42
0.7564
 43
1.0000
 50
0.0000
  0
INSERT
  8
18
  2
ROUNDV
 10
39.9668
 20
41.0192
 30
0.0000
 41
0.7564
 42
0.7564
 43
1.0000
 50
0.0000
  0
INSERT
  8
18
  2
ROUNDV
 10
37.6524
 20
40.2336
 30
0.0000
 41
0.7564
 42
0.7564
 43
1.0000
 50
0.0000
  0
INSERT
  8
18
  2
ROUNDV
 10
37.6524
 20
40.2336
 30
0.0000
 41
0.7564
 42
0.7564
 43
1.0000
 50
0.0000
  0
ENDSEC
  0
EOF
